<svg version="1.1" id="圖層_1" xmlns="http://www.w3.org/2000/svg" x="0" y="0" viewBox="0 0 700 104" style="enable-background:new 0 0 700 104" xml:space="preserve"><style>.st0{fill:#93da49}.st1{fill:#fff}.st2{fill:none}</style><path class="st0" d="M331.4 58.4c-.9-2.7-5-2.6-5.5.3-.7 3.7-4.5 6.1-7.8 7.7-.5.2-1.1.3-1.7.4-1.3.2-2.5.4-3.7.5-7.1.5-7.8-4-7.8-4 3.3.3 6.8-.3 10-1 5.1-1.2 10.9-3.8 13.9-8.3 3.4-5 1.2-11.2-2.4-15.5-4.4-5.2-11.8-5.7-18.2-4.4-7.3 1.5-13.3 5.4-16.6 12.2-2 4.2-2.4 8.5-1.7 12.8 0 .7.1 1.4.2 2.1.3 2.2.9 4.1 1.9 5.9.2.4.4.7.6 1.1.7 1.7 1.6 3.3 2.9 4.8 2.6 2.9 6.1 4.5 9.9 5.4 6.5 1.6 13.8 0 19.2-3.8 5-3.5 9-9.8 6.8-16.2zM300.5 53c0-.6 0-1.2.2-1.7.3-1 1.3-1.7 3-2.1 1.7-.4 3.6-.7 5.9-.8s4.6-.1 7.1 0 4.5 4.2 3.3 5.3c-1.2 1.2-2.8 1.9-4.6 2.4l-2.2.5c-1.6.3-3.6.4-5.9.2-2.2-.2-4.3-1-6-2.3-.5-.5-.8-1-.8-1.5z"/><path class="st1" d="M307.5 43.2c-.6-.8-1.5-.6-2-.1-.5.4-.6 1-.4 1.6s.8 1 1.5.8c.1 0 .1-.1.2-.1.4 0 .8-.2 1-.7 0-.1.1-.3 0-.4v-.1c.1-.4-.1-.6-.3-.8v-.2zM314.8 40c-.4.1-.7.5-.8.9-.3.4-.4 1 0 1.4.4.5 1 .6 1.6.4.4-.1.7-.4.8-.7.2-.5 0-1-.4-1.4-.2-.5-.7-.8-1.2-.6zM210.6 65.1c-.3.1-.7.2-1 .3-2 .8-5.7 4.2-9.6 5.3-3.9 1.1-14.7 2.5-15.2.5-.8-3.3 7.4-5.3 10.9-6 5.2-.9 11.6-.9 16.1-1.4 3.8-.5 5.1-1.8 5.2-3.9.2-2.3-1.5-5.4-7-7-9-2.3-22.2-.2-26.3.7-5 1-7 2.9-7 4.7.2 5 11.1 1.3 16.2.8 5.9-.7 9 0 9.1 1 .1.7-2.3 1.2-4.6 1.5-13.5 1.7-20.2 8.7-19.5 12.7.5 3.1 3.7 5.8 11.1 5.3 4.4-.3 8.8-1.5 13-2.8 2.1-.6 4.2-1.7 6.2-2.5.8-.3 1.7-1 2.2-.3.3.3.5 1.8.7 2.2.2.6.6 1.5 1.1 1.9 1 .8 3.3 1 4.4.3 3.4-1.9 1.2-7.1.5-10-.1-.3-.2-.6-.2-.9-2-3.5-6-2.5-6.3-2.4z"/><path class="st1" d="M188.1 72.3s11.8-.7 18.3-5l.4 2-8.8 4.2-9.9-1.2zM223.4 63.9c-.4-3.2-4.1-8.7-1.4-10.8 2.3-1.5 4.8-.1 6.1 2 1.2 1.9 1.7 2.4 2.5 2.4.7 0 1.8-2.3 2.7-3.7s2.6-2.4 4.9-2.5c2.7 0 6 1.9 9.2 5.2s9.2 9.4 11.2 8.4c2-1.1.3-9-.3-12.2-.6-3.2-9.8-36.2-11.3-40.9C245.5 7 244.7.9 248.3.1s5 3.2 5.7 6.3 10.8 37.4 11.6 46.6c.1 1.7 5.5-2.8 6.8-3.7 1.5-1.1 5.1-4.3 7.3-2.8 2.5 1.8 1.6 4.4-.9 6.5s-6.4 4.9-6.3 6.2 7.3 3.8 9.5 4.3c3.2.7 4.9 2.1 4.3 4.5-.7 3-5.1 1.9-10.5.4-3-.8-5.3-2-6.4-1.4-1 .7-.6 2-.5 4 .1 2.1.1 6-2 6.6-1.8.4-3.4.1-4.5-1.4-.7-.9-1-3.5-2.1-3.8-1.2-.3-2.2 1.2-3.4 1.2-1.5 0-3.2-1.1-4.3-2-2-1.7-6.6-5.4-8.7-7.9-2.1-2.5-4-4-5.1-3.8s-2.1 1.5-2.7 4.5c-.6 3.1-2.1 14.7-7 15-5.1.3-4.8-7.6-5.7-15.5zM135 47.7c-2.5.1-4.8.2-4.9-.4-.1-.6 2-2.3 3.3-4.1 1-1.3 2.8-3.7 1.9-7.8-.8-3.5-6.6-6.2-13.4-6.9-12.1-.9-27.2-.3-31.8.2-.7-3-2.6-6.9-6.5-6.3-4 .6-3.4 5.5-3.2 8.1C48.9 35.9 8.7 43.9 4.7 44.9c-3.9 1-5.3 3.6-4.5 6.5 1.3 4.6 8.8 2 12.6 1.4C49.3 47.3 73.5 41.2 81.4 40c0 0 1.2 11.5 1.4 15.2 0 0-13.5 3.4-17.2 4.7-3.6 1.3-8.5 3.3-8.3 7.8.3 7.5 12.4 3.2 18.3 1.5 2.7-.8 5.9-1.8 8.5-2.4 1.8 14.5 4.9 17.8 7.2 20.8 1 1.3 2.5 2.4 2.6 3.5.1 1.2-.7 1.6-3.5 2.5-2.1.7-9.9 1.7-12.2 1.9-2.2.2-4.5.6-4.8-.3-.2-.5 1-1.3 6.2-2.4 4.6-.9 8.2-2.8 7.6-5.3-.4-1.8-2-1.9-5.2-1.6-6.4.7-19.4 4.3-23.1 6.2-2.8 1.4-6.6 3.2-6.4 5.8.2 2.6 1.5 4.7 6.2 5.2 24.7-.3 41.4-4.7 54.7-9.2 34.8-10.7 56.2-24.6 55.9-35.6-.2-11-31.9-10.7-34.3-10.6zm-43.7-9.3c14-1.5 32.7-1.7 32.7.5.1 2.2-7.2 5.6-12.3 8.1-6 2.9-19.3 5.8-19.3 5.8l-1.1-14.4zm58.9 28.5c-5.6 3.8-16 9.3-25.3 13.2-3 1.3-12.2 4.8-16.8 6.3-1 .3-1.8.6-2.2.7-1 .2-2.1.5-2.9.6h-.6c-.3 0-.6 0-.8-.1-2.8-.8-7-5-8.2-15.4-.4-3.2-.4-7.9-.4-7.9 5.1-2 39.3-6.7 55-5.9 4.3.3 8.7.8 8.8 2.3.2 1.7-4.1 4.5-6.6 6.2zM188.9 79.8s10.8-.6 20.4-5.8l-1.5-1-18.9 6.8z"/><path class="st0" d="M417.2 24.2C410.8 9 390.8 3.9 375.9 5.6c-16.5 1.9-30.2 12.7-36.1 28.3-2.8 7.4-3.5 16.1-2.1 23.9.7 4.1 3.9 8.4 6.1 11.8 2.4 3.8 5.9 6.6 9.5 9.1 5.4 3.6 10.6 6.2 16.4 7.6 2.5.8 5.2 1.4 8.1 1.8 8.5 1.3 14.5-1.6 17.2-3 .8-.4 1.5-.8 2.2-1.3.4-.2.9-.6 1.5-.9l.1-.1c.2-.2.4-.3.6-.5.4-.3.7-.5 1-.8l.2-.2c7-5.9 9.8-12.7 9.8-12.7 1.5-3.5.8-7.6-4.3-7.3-1.6.1-3.2.8-4.6 1.8-5.3 4.4-12 6-22.3 4.4-10.9-1.7-16.1-6.3-18.5-9.5 0-.1-.1-.1-.1-.2-.3-.5-.6-.9-.8-1.2 0-.1-.1-.1-.1-.2-.5-1-.7-1.6-.7-1.6 12.5 3.8 26.4 8.5 39.2 4.6 0 0 3.5-.8 7.6-2.9 2-.8 3.7-2 5.2-3.3h.1c.6-.5.9-.8 1-1 2.4-2.7 4.1-5.7 5.1-9.2v-.1c2.5-5.8 2.8-12.3 0-18.7zm-16.4 17c-.2 1-.6 2-1.2 3-1 1.7-3 2.5-6.2 2.5s-6.8-.4-10.9-1.2-8.4-1.8-12.8-3-6.2-9.5-3.6-11 5.8-2.3 9.4-2.2l4.2.1c3.1.1 6.6.8 10.6 2.2 3.9 1.4 7.2 3.6 9.8 6.7.7.9.9 1.8.7 2.9z"/><path class="st2" d="M390.2 31.5c-3.9-1.4-7.5-2.1-10.6-2.2l-4.2-.1c-3.6-.1-6.7.7-9.4 2.2-2.6 1.5-.8 9.8 3.6 11s8.7 2.2 12.8 3c4.1.8 7.7 1.2 10.9 1.2s5.2-.9 6.2-2.5c.5-.9.9-1.9 1.2-3 .2-1.1 0-2-.8-2.9-2.5-3-5.8-5.3-9.7-6.7z"/><path class="st1" d="M375.7 19c-.7-.3-1.5-.2-2.1 0-.2 0-.5.1-.7.2-.1 0-.3.1-.4.2-.1.1-.2.1-.2.2-.6.4-1 1.1-1.1 2-.1.7.1 1.4.4 1.9.1.4.3.7.5 1 .2.2 1.4.7 1.1.4.3.1.6.2.8.3 1.7.5 3.2-1 3.7-2.5.6-1.7-.6-3.2-2-3.7zm-.4 1.1c.6.8.4 2-.1 2.8-.3.4-.7.7-1.2.8-.7.2-.9-.8-1-1.3-.1-.3 0-.7 0-1 .2-.5.6-.9 1-1.2.1-.1.2-.2.4-.2.3-.2.5-.1.9.1-.1-.1 0-.1 0 0zm-1.7 4h-.1c-.2 0-.3-.1-.5-.3.2.2.5.3.6.3zm2.5-4.5c.2.2.4.5.5.8-.2-.2-.5-.5-.8-.6l-.3-.3c.2 0 .4 0 .6.1zM400.8 22.1c-1.9-5.5-10.1-4-11.4 1.1-.5 1.9.8 4.2 2.5 5.2 1.6 1.2 3.6 1.5 5.5.5 2.5-1.3 4.3-4 3.4-6.8zm-3.7-.4c.3.4.5 1 .4 1.7 0 .5-.4 1.3-.9 2-.8.7-2.1.9-3.2.7-.5-.3-.8-.8-.8-1.3.1-.8.4-1.7.8-2.2.9-1.2 2.7-1.6 3.7-.9zm-6.1 3.7c.2.4.4.6.7.9.2.6.5 1 .8 1.3-.3-.1-.6-.3-.9-.6-.3-.5-.5-1.1-.6-1.6zm8.6-1.5c.1-1.1-.3-2.1-1-2.9 0-.1-.1-.3-.2-.4-.4-.3-.8-.6-1.1-.8 2.1.6 2.7 2.3 2.3 4.1z"/><path class="st0" d="M359.9 56.5c0-.1-.1-.1-.1-.2 0 .1 0 .2.1.2zM360.8 58c0-.1-.1-.1-.1-.2 0 .1.1.1.1.2z"/><path class="st2" d="M390.2 31.5c-3.9-1.4-7.5-2.1-10.6-2.2l-4.2-.1c-3.6-.1-6.7.7-9.4 2.2-2.6 1.5-.8 9.8 3.6 11s8.7 2.2 12.8 3c4.1.8 7.7 1.2 10.9 1.2s5.2-.9 6.2-2.5c.5-.9.9-1.9 1.2-3 .2-1.1 0-2-.8-2.9-2.5-3-5.8-5.3-9.7-6.7z"/><path class="st0" d="M359 54.8s.2.6.7 1.6c-.2-.5-.5-1-.7-1.6zM360.7 57.8c-.3-.4-.6-.8-.8-1.2.2.3.4.7.8 1.2z"/><path class="st2" d="M529.1 60.1h21z"/><path class="st1" d="M458.2 34c-2.9 3.4-5.8 6.8-8.7 9.9.3 2.7.5 5.3.8 7.8 2.8 2 6.5 3.6 11.2 4.7.9.3 1.3 1 1.1 2-.5 1.1-1.3 1.5-2.3 1.4-.8-.1-4-1.1-9.6-3.2.5 4.8.9 9.6 1.3 14.2.1 1.5-.6 2.4-2 2.8-1.5-.1-2.1-1-2-2.6-.1-3-.1-5.9-.1-8.5-.2-5.4-.8-10.3-1.9-14.7-1.9 2-3.8 3.9-5.6 5.7-1.5 2.1-2.7 2.9-3.8 2.4-1-.9-1-1.8.1-2.7 3.2-2.9 6-5.8 8.4-8.7 3.3-3.6 5.7-6.8 7.1-9.5-2.6.2-5.6.3-8.8.4-1.1-.1-1.9-.6-2.5-1.4-.2-.9 0-1.4.6-1.5 1.8 0 3.3 0 4.7.1 3.6-.3 6.6-.7 9-1 2.4-.2 3.4.6 3 2.4zM445 20.9c1.5.1 3.8 1.3 7 3.7.5.4.7.9.6 1.6-.1.5-.5.9-1 1.1-2.2.1-4.7-1.2-7.4-3.7-.7-.7-1-1.3-.7-1.9s.8-.8 1.5-.8zm33.1 9.3c-.2 2.4-.3 5-.3 7.9 2.5-.3 4.8-.7 7-1.4 1.3 0 2 .5 2.2 1.6.1 1-.6 1.7-1.9 2.1-.7.4-3.2.8-7.4 1.3V43c.1 5.2.2 11.2.5 18.1 0 .7-.1 1.2-.2 1.5 2.7-.2 6-.5 9.9-.9 2.6-.1 4.4-.3 5.4-.6.9-.1 1.5.4 2.1 1.3.2 1.5-.7 2.5-2.8 3.1-2.6.1-5.2.2-7.6.2-4.4.4-8.1.6-11.3.6-3.2-.3-6.2-.6-9-.9-3 0-4.5-.7-4.4-2.2.1-1.1 1.3-1.7 3.4-1.8 3.6.8 7.3 1.2 11 1.3-.1-.7-.2-1.4-.1-2.2 0-6-.1-12.1-.3-18.3-2.4.3-4.6.4-6.6.4-1.9-.1-2.9-.8-3-2.2.2-1.3 1.4-1.9 3.6-1.8 2.1.1 4.1 0 6-.1-.1-2.8-.3-5.7-.4-8.4.3-1.3 1.1-1.9 2.2-1.8 1-.1 1.7.5 2 1.9zM531.8 41.3c0 .9-.6 1.4-1.7 1.5-.3 0-.5 0-.6-.1-1.2.6-4.5 1.4-9.8 2.3-.5.1-1 .1-1.5.2-.3 1.8-.7 3.6-1.2 5.3.7.3 1.1.9 1.2 1.8 1.3-.3 2.8-.7 4.5-1 3.1-.6 5.5-1 7-1.3 1.9.3 3 1.3 3.3 3.1.1 3.8-.1 7.6-.4 11.4-.3 3.4-1.8 5.6-4.6 6.3-3.6.1-6.9-.8-9.7-2.6-.3.9-.9 1.4-1.6 1.5-1.1-.2-1.8-1.1-1.9-2.8.2-2.1.2-5.6-.1-10.5-.3.7-.7 1.4-1.1 2.1-2.3 3.8-4.5 6-6.5 6.7-1.3.1-2-.5-2.4-2 .1-1.3.6-2 1.3-2.3.5 1.3 2.1 0 4.7-4 1.8-3 3.1-6.8 3.9-11.4-1.8.2-3.5.3-5.2.3-1.7-.1-2.6-.7-2.7-2 .2-1.3 1.3-1.8 3.3-1.7 1.9.1 3.6 0 5.3-.1.3-2.4.4-4.8.5-7.3-2.2.2-4.4.3-6.4.3-1.9-.1-2.8-.8-2.9-2.1.2-1.3 1.4-1.9 3.5-1.8 2 .1 4 .1 5.9 0v-4c.4-1.4 1-2 1.8-1.9 1.3-.2 2 .6 2.1 2.4 0 1.1 0 2.2-.1 3.2 3-.3 6-.8 8.8-1.5.1-1.3.1-2.6.2-3.9.5-1.5 0-2-1.4-1.8l-8.7.6c-2.8.7-5.4.6-7.8-.2-2-1.4-2-2.5.3-3.5 6.4 0 12.7 0 19.1-.1 3-.6 3.9.8 2.5 4.1-.2 1.1-.3 2.3-.4 3.6.7-.2 1.3-.4 1.9-.6 1.3 0 2 .5 2.1 1.5s-.5 1.7-1.8 2.1c-.5.3-1.3.6-2.6.9-.4 4-.4 7.1-.1 9.3zm-13.3 23.8c1.5 1.5 3.6 2.2 6.3 2.2 2.5 0 3.9-1 4.4-3.1.1-.9.2-3.4.2-7.3.1-2.3-.5-3.3-1.7-3.1-4.8.6-7.9 1.2-9.3 1.9.2 3.6.2 6.8.1 9.4zm1.1-30.8c-.1 2.7-.4 5.1-.8 7.3 3.2-.4 6.3-1.1 9.2-2 .1-1.8.2-4.1.3-6.8-1.9.5-4 .9-6.2 1.2-.9.1-1.7.2-2.5.3zm23.8-11.8c-.1-1.3.5-2.1 1.8-2.5 1.1-.3 1.8.4 2.1 1.9 0 1.7.6 4.2 1.8 7.5.8.5 1.3 1 1.5 1.5 1.4-2.1 2.5-5.2 3.2-9.3.6-.8 1.3-1 2.2-.6 1.1.5 1.5 1.3 1.3 2.2-.9 3.2-1.8 5.7-2.7 7.5 2-.3 4-.8 5.8-1.3 1.3 0 2 .5 2.2 1.6.1 1-.6 1.7-1.9 2.1-.8.5-3.4 1-7.8 1.7-.1 1.7-.2 3.2-.3 4.8 1.8-.3 3.7-.7 5.5-1.3 1.3 0 2 .5 2.2 1.6.1 1-.6 1.7-1.9 2.1-.5.4-2.5.9-6 1.5-.1 2-.2 3.9-.3 5.8 4-.5 7.9-1.2 11.7-2.3 1.3 0 2 .5 2.2 1.6.1 1-.6 1.7-1.9 2.1-1.1.6-5.2 1.4-12.2 2.3-.2 2.9-.4 5.7-.5 8.4 0 4.3.1 8 .4 11.1-.1 2.4-1 3.6-2.5 3.8-1.5-.3-2.2-1.2-1.9-2.9.1-1.8.4-5.9.9-12 .1-2.8.1-5.5.2-8-3.2.3-6.2.4-8.9.4-1.9-.1-2.9-.8-3-2.2.2-1.3 1.4-1.9 3.6-1.8 2.9.1 5.7 0 8.4-.2.1-1.8.1-3.7.1-5.6-2.2.3-4.4.4-6.5.4-1.9-.1-2.9-.8-3-2.2.2-1.3 1.4-1.9 3.6-1.8 2.2.1 4.2 0 6.2-.2.1-1.7.1-3.3.1-4.9-3.2.3-6.2.5-8.9.5-1.9-.1-2.9-.8-3-2.2.2-1.3 1.4-1.9 3.6-1.8 1.9.1 3.8 0 5.7-.1-1.4-2.3-2.4-5.4-3.1-9.2zM593.3 63.3c2-1.7 3.5-4.2 4.5-7.4.6-.8 1.3-1 2.2-.6 1.1.5 1.5 1.2 1.3 2.1-1.4 3-2.7 5.4-4 6.9 1.5-.5 3-1.2 4.4-2 .8-.2 1.3.1 1.6 1 .2.9-.1 1.7-.9 2.2-4.5 2.7-10.4 4.9-17.8 6.6-1.2.1-2-.4-2.5-1.7-.3-1.3.2-2.2 1.3-2.5 1.1-.1 2-.3 3-.5-3-2.9-5.5-6.8-7.5-11.6-.3.1-.5.1-.7.1-1.1.1-1.8-.4-2.1-1.5s.1-1.8 1.1-2.2c4.6-.5 8.6-1.3 12.2-2.2-.1-1.8-.3-3.7-.4-5.6-.7.2-1.4.4-2.1.5-2.2.3-4 .4-5.4.3-3 .1-4.5-.6-4.6-1.9-.3-1.2 1.3-1.8 4.7-1.8 1.5 0 3.2-.1 5.3-.2 2.3-.5 5-1.3 8.1-2.3.7-.1 1.2.1 1.5.4.5 1.1.2 1.8-.7 2.4-.9.5-1.8 1-2.9 1.3-.1 1.7-.1 3.7-.1 5.9 1.8-.5 3.5-1.1 5.1-1.8.9-.2 1.5.2 1.9 1.1.3 1.1-.1 2-1.1 2.6-1.8.7-3.7 1.4-5.9 1.9.2 3.3.4 6.8.5 10.5zm-16.1-22.2c-1.1-1.1-.5-2.7 1.9-5.1.9-.7 2.5-3.6 4.9-8.6.8-1.6 1.5-2.5 2-2.7.7-.3 2 .8 3.9 3.4 1.7 1.2 3.7 2.1 6.2 2.9 2.5-.1 3.9.6 4.5 2.1-.1 1.4-1 2-2.9 1.9-4-.6-7.7-2.2-11.3-5l-4.9 8.8c-1.1 2.3-2.5 3-4.3 2.3zm5.6 14c.3 2.4 2.5 5.6 6.5 9.6.3.2.5.3.6.4 0-3.8-.1-7.6-.3-11.4-2.2.5-4.5 1-6.8 1.4zm22.1 14.4c.6-4.3.9-10.3.9-18-.1-5.8-.3-12.3-.6-19.5-1.3.1-2.1-.3-2.5-1.2-.1-1.3.7-2.1 2.2-2.7 2.5-.7 8-1.3 16.4-2 2.4.3 3.5 1.6 3.3 4 0 2.2-.1 5.5-.4 9.7h.2c1.1.1 1.5.6 1.3 1.6-.9 1.8-2.7 3.3-5.4 4.5-4.6 1.4-7.9 2.1-10.1 2.1-.4.1-.7.1-1 0l-.3 19.5c1.6.6 4.3-1.7 8.1-6.8.3-.5.8-.6 1.3-.5-1.6-1.8-3.2-3.7-4.9-5.8-.1-1 .2-1.7.9-2 .8-.5 1.5-.3 2 .4 1.2 1.5 2.4 2.8 3.5 4 2.5-2 4.3-4.9 5.6-8.5.7-.8 1.4-1 2.2-.6 1.1.5 1.5 1.2 1.3 2.1-2.3 4.9-4.5 8.1-6.5 9.6 3.8 3.8 7.3 6.1 10.4 7 1.1.4 2.1.4 3.2.1 1.3.4 1.9 1.1 1.8 2.2-.7 1.1-1.9 1.7-3.5 1.7-4.2.1-9.3-3-15.2-9.3.1.3.1.6 0 .8-1.7 4-4.6 7.3-8.7 9.8-1.1.5-2 .9-3 1-1.9-.5-2.7-1.5-2.5-3.2zm4.2-33.4c3.9.1 7-.5 9.2-1.7.9-.8 1.7-1.3 2.4-1.4.1-.7.1-1.4.1-2.1.1-1.5-.2-2.1-.9-1.9-1.5.3-3.9.7-7.2 1.2-1.3.2-2.4.4-3.4.7v.7c0 1.6 0 3.1-.2 4.5zm0 8.1h.5c4.5.1 8-.8 10.6-2.6.1-1.5.2-3.1.3-4.7-.6.5-1.3.9-2.1 1.2-4 1.1-7 1.7-8.8 1.7h-.5v4.4zM644.7 55.7c8.2-4.8 14.3-11.8 18.4-21.1.6-.8 1.4-1 2.3-.6 1.1.5 1.6 1.2 1.3 2.2-3.1 5.5-6.1 10-9 13.5.8.2 1.2.7 1.3 1.6 1.5 3.9 2.7 8.6 3.4 14 .2 1.6-.3 2.6-1.6 3-1.3.1-2.1-.7-2.4-2.2-.2-3.9-1.2-8.5-3.1-13.8-3.3 3.5-6.4 5.8-9.5 7-1.2.1-2-.2-2.4-1.1 0-1.2.4-2 1.3-2.5zm1.3-17.6c.3-.8 3.9-5 10.9-12.4 1-.7 1.9-.5 2.6.6.5 1.1.3 2.1-.5 2.9-2.4 1.9-5.6 5.3-9.5 10.3-.8.9-1.7 1.1-2.7.7-.8-.7-1.1-1.4-.8-2.1zm40 3.1c-5.3 1.2-10 1.9-14.2 2-1.3-.2-2.2-.8-2.5-1.8-.2-1 .5-1.8 2.3-2.2 5.2.3 11.4-.6 18.6-2.6 4-1 6.4-1.7 7.4-2.1.3-.1.8 0 1.5.4.8.6 1.1 1.1.9 1.8-.3.6-2.6 1.5-7.1 2.7-1.1.3-2.1.6-3 .8.5 2.5.8 7.3.8 14.5v12.7c.1.7.1 1.4.2 2.1-.3 1.5-1.3 2.4-3 2.5-.6.1-2-.7-4.2-2.2-2.8-1.7-4.5-3-5.2-4.1 0-1.7.8-2.2 2.3-1.6l5.3 2.5c1 1 1.2-3.6.6-14 .1-4.2-.1-8-.7-11.4zm6.4-16.8c.7.1 1.2.4 1.6.8.4.6.6 1.3.5 2-1.2 1.7-4.5 2.6-9.7 2.5-2.7.1-5.3-.4-7.9-1.2-.8-.6-1.2-1.3-1.1-2.1.1-.9.7-1.5 1.6-1.7 1.9.9 4.2 1.3 7 1.1 2.5.1 5.2-.4 8-1.4z"/><path class="st2" d="M0 0h700v104H0z"/></svg>